<?xml version="1.0" encoding="UTF-8"?>
<svg id="Layer_1" data-name="Layer 1" xmlns="http://www.w3.org/2000/svg" version="1.1" viewBox="0 0 94.46 79.03">
  <defs>
    <style>
      .cls-1 {
        fill: #d94f04;
        stroke-width: 0px;
      }
    </style>
  </defs>
  <path class="cls-1" d="M65.52,64.08c-12.9,6.44-27.15,8.01-40.55,13.65-1.18-13.08-8.24-20.74-15.62-30.99C-.54,33.02-5.79.25,19.94,1.12c6.86.23,12.71,5.12,16.86,10.58,3.9,5.12,6.83,10.97,8.61,17.16,5.9-12.84,21.02-20.71,34.92-18.19,2.46.45,4.92,1.21,6.93,2.7,1.86,1.38,3.24,3.33,4.25,5.41,4.24,8.67,2.17,19.51-3.43,27.37-5.61,7.88-13.69,13.59-22.56,17.94Z"/>
</svg>